<mxfile host="65bd71144e">
    <diagram id="4lJBkg3kjQr4qlLLZd5x" name="Page-1">
        <mxGraphModel dx="1198" dy="739" grid="1" gridSize="10" guides="1" tooltips="1" connect="1" arrows="1" fold="1" page="1" pageScale="1" pageWidth="827" pageHeight="1169" math="0" shadow="0">
            <root>
                <mxCell id="0"/>
                <mxCell id="1" parent="0"/>
                <mxCell id="2" value="test" style="ellipse;whiteSpace=wrap;html=1;" vertex="1" parent="1">
                    <mxGeometry x="70" y="80" width="220" height="230" as="geometry"/>
                </mxCell>
                <mxCell id="3" value="test" style="whiteSpace=wrap;html=1;" vertex="1" parent="1">
                    <mxGeometry x="414" y="165" width="120" height="60" as="geometry"/>
                </mxCell>
                <mxCell id="5" value="" style="edgeStyle=none;orthogonalLoop=1;jettySize=auto;html=1;entryX=0;entryY=0.5;entryDx=0;entryDy=0;" edge="1" parent="1" target="3">
                    <mxGeometry width="80" relative="1" as="geometry">
                        <mxPoint x="290" y="194.5" as="sourcePoint"/>
                        <mxPoint x="370" y="194.5" as="targetPoint"/>
                        <Array as="points"/>
                    </mxGeometry>
                </mxCell>
            </root>
        </mxGraphModel>
    </diagram>
</mxfile>